<svg width="48" height="48" viewBox="0 0 48 48" fill="none" xmlns="http://www.w3.org/2000/svg">
<path d="M14.8945 19.8105H20.3086V14.8066C20.3086 14.8066 20.3633 14.1641 20.4727 12.8789C20.6094 11.5938 21.293 10.3359 22.5234 9.10547C23.7812 7.84766 25.2578 7.17773 26.9531 7.0957C28.6758 6.98633 30.7266 7.04102 33.1055 7.25977V12.8379H29.5781C29.5781 12.8379 29.3047 12.8652 28.7578 12.9199C28.2109 12.9746 27.7598 13.1934 27.4043 13.5762C27.0762 13.9863 26.8848 14.4238 26.8301 14.8887C26.8027 15.3535 26.7891 15.6543 26.7891 15.791V19.8105H32.9004L32.1211 26.0039H26.748V42H20.3086V26.0039H14.8945V19.8105Z" fill="black"/>
</svg>
