<svg width="48" height="48" viewBox="0 0 48 48" fill="none" xmlns="http://www.w3.org/2000/svg">
<path d="M24 10.1309C26.3242 10.1309 27.8555 10.1445 28.5938 10.1719C29.332 10.1719 30.166 10.1992 31.0957 10.2539C31.916 10.2812 32.5859 10.3633 33.1055 10.5C33.625 10.6094 34.0352 10.7598 34.3359 10.9512C34.7188 11.0605 35.0742 11.2246 35.4023 11.4434C35.7305 11.6621 36.0449 11.9082 36.3457 12.1816C36.6465 12.4824 36.8926 12.7832 37.084 13.084C37.2754 13.3848 37.4395 13.7539 37.5762 14.1914C37.6582 14.4922 37.7676 14.9023 37.9043 15.4219C38.041 15.9141 38.1367 16.584 38.1914 17.4316C38.2188 18.334 38.2324 19.168 38.2324 19.9336C38.2598 20.6719 38.2734 22.1895 38.2734 24.4863C38.2734 26.8105 38.2598 28.3555 38.2324 29.1211C38.2324 29.8594 38.2188 30.6797 38.1914 31.582C38.1914 32.4297 38.123 33.1133 37.9863 33.6328C37.877 34.125 37.7402 34.5215 37.5762 34.8223C37.4395 35.2051 37.2617 35.5605 37.043 35.8887C36.8242 36.2168 36.5918 36.5312 36.3457 36.832C36.0449 37.1328 35.7441 37.3789 35.4434 37.5703C35.1426 37.7617 34.7734 37.9258 34.3359 38.0625C34.0352 38.1445 33.625 38.2539 33.1055 38.3906C32.5859 38.5273 31.916 38.623 31.0957 38.6777C30.166 38.7324 29.332 38.7598 28.5938 38.7598C27.8555 38.7598 26.3242 38.7598 24 38.7598C21.6758 38.7598 20.1445 38.7598 19.4062 38.7598C18.668 38.7598 17.834 38.7324 16.9043 38.6777C16.084 38.6777 15.4141 38.623 14.8945 38.5137C14.375 38.377 13.9648 38.2266 13.6641 38.0625C13.2812 37.9258 12.9258 37.7617 12.5977 37.5703C12.2695 37.3516 11.9551 37.1055 11.6543 36.832C11.3535 36.5312 11.1074 36.2305 10.916 35.9297C10.7246 35.6289 10.5605 35.2598 10.4238 34.8223C10.3145 34.5215 10.1777 34.125 10.0137 33.6328C9.87695 33.1133 9.78125 32.4297 9.72656 31.582C9.69922 30.6797 9.67188 29.8594 9.64453 29.1211C9.64453 28.3555 9.64453 26.8105 9.64453 24.4863C9.64453 22.1895 9.64453 20.6719 9.64453 19.9336C9.67188 19.168 9.69922 18.334 9.72656 17.4316C9.78125 16.584 9.86328 15.9141 9.97266 15.4219C10.1094 14.9023 10.2598 14.4922 10.4238 14.1914C10.5605 13.7812 10.7383 13.4258 10.957 13.125C11.1758 12.7969 11.4082 12.4824 11.6543 12.1816C11.9551 11.8535 12.2559 11.5938 12.5566 11.4023C12.8574 11.2109 13.2266 11.0605 13.6641 10.9512C13.9648 10.8145 14.375 10.6777 14.8945 10.541C15.4141 10.377 16.084 10.2812 16.9043 10.2539C17.834 10.2539 18.668 10.2402 19.4062 10.2129C20.1445 10.1582 21.6758 10.1309 24 10.1309ZM24 7.01367C21.6484 7.01367 20.0898 7.01367 19.3242 7.01367C18.5859 7.01367 17.752 7.04102 16.8223 7.0957C15.8926 7.12305 15.0859 7.20508 14.4023 7.3418C13.7188 7.47852 13.1035 7.65625 12.5566 7.875C11.9824 8.14844 11.4219 8.43555 10.875 8.73633C10.3555 9.00977 9.86328 9.39258 9.39844 9.88477C8.90625 10.377 8.50977 10.8828 8.20898 11.4023C7.9082 11.9219 7.63477 12.4688 7.38867 13.043C7.19727 13.5625 7.01953 14.1777 6.85547 14.8887C6.71875 15.5996 6.62305 16.4062 6.56836 17.3086C6.54102 18.2383 6.51367 19.0859 6.48633 19.8516C6.48633 20.5898 6.48633 22.1348 6.48633 24.4863C6.48633 26.8652 6.48633 28.4375 6.48633 29.2031C6.51367 29.9414 6.54102 30.7617 6.56836 31.6641C6.62305 32.5938 6.71875 33.4004 6.85547 34.084C6.99219 34.7676 7.16992 35.3965 7.38867 35.9707C7.63477 36.5449 7.9082 37.0781 8.20898 37.5703C8.50977 38.0625 8.90625 38.582 9.39844 39.1289C9.86328 39.5938 10.3418 39.9902 10.834 40.3184C11.3535 40.6465 11.9277 40.9199 12.5566 41.1387C13.0762 41.3027 13.6777 41.4668 14.3613 41.6309C15.0723 41.7676 15.8926 41.8633 16.8223 41.918C17.752 41.9453 18.5859 41.9727 19.3242 42C20.0898 42 21.6484 42 24 42C26.3516 42 27.8965 42 28.6348 42C29.4004 41.9727 30.248 41.9453 31.1777 41.918C32.1074 41.8633 32.9141 41.7812 33.5977 41.6719C34.2812 41.5352 34.8965 41.3574 35.4434 41.1387C36.0176 40.8652 36.5508 40.5781 37.043 40.2773C37.5625 39.9766 38.082 39.5938 38.6016 39.1289C39.0938 38.6367 39.4902 38.1445 39.791 37.6523C40.1191 37.1328 40.3926 36.5723 40.6113 35.9707C40.8027 35.4512 40.9668 34.8359 41.1035 34.125C41.2676 33.4141 41.377 32.5938 41.4316 31.6641C41.459 30.7617 41.4727 29.9414 41.4727 29.2031C41.5 28.4375 41.5137 26.8652 41.5137 24.4863C41.5137 22.1348 41.5 20.5898 41.4727 19.8516C41.4727 19.0859 41.459 18.2383 41.4316 17.3086C41.377 16.4062 41.2812 15.6133 41.1445 14.9297C41.0078 14.2461 40.8301 13.6172 40.6113 13.043C40.3652 12.4688 40.0918 11.9355 39.791 11.4434C39.4902 10.9238 39.0938 10.4043 38.6016 9.88477C38.1367 9.36523 37.6309 8.96875 37.084 8.69531C36.5645 8.42188 36.0176 8.14844 35.4434 7.875C34.9238 7.71094 34.3086 7.54688 33.5977 7.38281C32.9141 7.21875 32.1074 7.12305 31.1777 7.0957C30.248 7.04102 29.4004 7.01367 28.6348 7.01367C27.8965 7.01367 26.3516 7.01367 24 7.01367ZM24 15.5859C22.7422 15.5859 21.5664 15.8184 20.4727 16.2832C19.4062 16.748 18.4629 17.3906 17.6426 18.2109C16.8496 19.0039 16.2207 19.9473 15.7559 21.041C15.291 22.1348 15.0586 23.2832 15.0586 24.4863C15.0586 25.7168 15.291 26.8789 15.7559 27.9727C16.2207 29.0391 16.8496 29.9824 17.6426 30.8027C18.4629 31.623 19.4062 32.2656 20.4727 32.7305C21.5664 33.1953 22.7422 33.4277 24 33.4277C25.2578 33.4277 26.4199 33.1953 27.4863 32.7305C28.5801 32.2656 29.5234 31.6367 30.3164 30.8438C31.1367 30.0234 31.7793 29.0801 32.2441 28.0137C32.709 26.9199 32.9414 25.7441 32.9414 24.4863C32.9414 23.2559 32.709 22.0938 32.2441 21C31.7793 19.9062 31.1367 18.9629 30.3164 18.1699C29.5234 17.377 28.5801 16.748 27.4863 16.2832C26.4199 15.8184 25.2578 15.5859 24 15.5859ZM24 30.3516C22.3867 30.3516 21.0059 29.791 19.8574 28.6699C18.709 27.5215 18.1348 26.127 18.1348 24.4863C18.1348 22.873 18.709 21.4922 19.8574 20.3438C21.0059 19.1953 22.3867 18.6211 24 18.6211C25.6133 18.6211 26.9941 19.1953 28.1426 20.3438C29.291 21.4922 29.8652 22.873 29.8652 24.4863C29.8652 26.127 29.291 27.5215 28.1426 28.6699C26.9941 29.791 25.6133 30.3516 24 30.3516ZM35.4434 15.1348C35.4434 15.709 35.2383 16.2012 34.8281 16.6113C34.418 17.0215 33.9258 17.2266 33.3516 17.2266C32.7773 17.2266 32.2852 17.0215 31.875 16.6113C31.4648 16.2012 31.2598 15.709 31.2598 15.1348C31.2598 14.5605 31.4648 14.0684 31.875 13.6582C32.2852 13.248 32.7773 13.043 33.3516 13.043C33.9258 13.043 34.418 13.248 34.8281 13.6582C35.2383 14.0684 35.4434 14.5605 35.4434 15.1348Z" fill="black"/>
</svg>
