<svg width="48" height="48" viewBox="0 0 48 48" fill="none" xmlns="http://www.w3.org/2000/svg">
<path d="M24 8.73633C21.5938 8.73633 19.3242 9.10547 17.1914 9.84375C15.0586 10.582 13.1992 11.5801 11.6133 12.8379C10.0273 14.0957 8.76953 15.5723 7.83984 17.2676C6.9375 18.9629 6.48633 20.7676 6.48633 22.6816C6.48633 23.9121 6.67773 25.1016 7.06055 26.25C7.44336 27.3711 7.97656 28.4375 8.66016 29.4492C9.37109 30.4336 10.2188 31.3496 11.2031 32.1973C12.1875 33.0176 13.2676 33.7422 14.4434 34.3711L13.1309 41.2207L20.7188 36.3809C21.2383 36.4629 21.7715 36.5312 22.3184 36.5859C22.8652 36.6133 23.4258 36.627 24 36.627C26.4062 36.627 28.6758 36.2715 30.8086 35.5605C32.9414 34.8223 34.8008 33.8242 36.3867 32.5664C37.9727 31.2812 39.2168 29.8047 40.1191 28.1367C41.0488 26.4414 41.5137 24.623 41.5137 22.6816C41.5137 20.7676 41.0488 18.9629 40.1191 17.2676C39.2168 15.5723 37.9727 14.0957 36.3867 12.8379C34.8008 11.5801 32.9414 10.582 30.8086 9.84375C28.6758 9.10547 26.4062 8.73633 24 8.73633Z" fill="black"/>
</svg>
