<svg width="48" height="48" viewBox="0 0 48 48" fill="none" xmlns="http://www.w3.org/2000/svg">
<path d="M31.5059 24.4863C31.5059 24.2676 31.4512 24.0762 31.3418 23.9121C31.2598 23.7207 31.123 23.5703 30.9316 23.4609L20.9238 17.1855C20.7051 17.0488 20.4863 16.9805 20.2676 16.9805C20.0762 16.9805 19.8711 17.0352 19.6523 17.1445C19.4336 17.2812 19.2695 17.4453 19.1602 17.6367C19.0508 17.8008 18.9961 18.0059 18.9961 18.252V30.7617C18.9961 31.0078 19.0508 31.2266 19.1602 31.418C19.2695 31.582 19.4336 31.7188 19.6523 31.8281C19.7617 31.8828 19.8574 31.9238 19.9395 31.9512C20.0488 31.9785 20.1582 31.9922 20.2676 31.9922C20.377 31.9922 20.4863 31.9785 20.5957 31.9512C20.7051 31.9238 20.8145 31.8691 20.9238 31.7871L30.9316 25.5527C31.123 25.4434 31.2598 25.3066 31.3418 25.1426C31.4512 24.9512 31.5059 24.7324 31.5059 24.4863ZM41.5137 24.4863C41.5137 25.1152 41.5 25.6758 41.4727 26.168C41.4727 26.6602 41.4727 27.084 41.4727 27.4395C41.4727 27.7949 41.459 28.1914 41.4316 28.6289C41.4043 29.0664 41.3633 29.5586 41.3086 30.1055C41.2539 30.625 41.1855 31.1309 41.1035 31.623C41.0488 32.1152 40.9668 32.5664 40.8574 32.9766C40.7754 33.4414 40.6113 33.8789 40.3652 34.2891C40.1465 34.6992 39.873 35.0684 39.5449 35.3965C39.1895 35.6973 38.8066 35.9434 38.3965 36.1348C37.9863 36.3262 37.5625 36.4492 37.125 36.5039C35.6758 36.668 33.8574 36.791 31.6699 36.873C29.4824 36.9551 26.9258 36.9961 24 36.9961C21.0742 36.9961 18.5176 36.9551 16.3301 36.873C14.1426 36.791 12.3242 36.668 10.875 36.5039C10.4375 36.4492 10.0137 36.3262 9.60352 36.1348C9.19336 35.9434 8.81055 35.6973 8.45508 35.3965C8.09961 35.0684 7.8125 34.6992 7.59375 34.2891C7.375 33.8789 7.21094 33.4414 7.10156 32.9766C7.01953 32.5664 6.9375 32.1152 6.85547 31.623C6.80078 31.1309 6.74609 30.625 6.69141 30.1055C6.63672 29.5586 6.5957 29.0664 6.56836 28.6289C6.54102 28.1914 6.52734 27.7949 6.52734 27.4395C6.52734 27.084 6.51367 26.6602 6.48633 26.168C6.48633 25.6758 6.48633 25.1152 6.48633 24.4863C6.48633 23.8574 6.48633 23.3105 6.48633 22.8457C6.51367 22.3535 6.52734 21.9297 6.52734 21.5742C6.52734 21.2188 6.54102 20.8223 6.56836 20.3848C6.5957 19.9473 6.63672 19.4551 6.69141 18.9082C6.74609 18.3613 6.80078 17.8555 6.85547 17.3906C6.9375 16.8984 7.0332 16.4473 7.14258 16.0371C7.22461 15.5449 7.375 15.1074 7.59375 14.7246C7.83984 14.3145 8.12695 13.9453 8.45508 13.6172C8.81055 13.2891 9.19336 13.0293 9.60352 12.8379C10.0137 12.6465 10.4375 12.5234 10.875 12.4688C12.3242 12.332 14.1426 12.2227 16.3301 12.1406C18.5176 12.0586 21.0742 12.0176 24 12.0176C26.9258 12.0176 29.4824 12.0586 31.6699 12.1406C33.8574 12.2227 35.6758 12.332 37.125 12.4688C37.5625 12.5234 37.9863 12.6465 38.3965 12.8379C38.8066 13.0293 39.1895 13.2891 39.5449 13.6172C39.9004 13.9453 40.1875 14.3145 40.4062 14.7246C40.625 15.1074 40.7891 15.5449 40.8984 16.0371C40.9805 16.4473 41.0488 16.8984 41.1035 17.3906C41.1855 17.8555 41.2539 18.3613 41.3086 18.9082C41.3633 19.4551 41.4043 19.9473 41.4316 20.3848C41.459 20.8223 41.4727 21.2188 41.4727 21.5742C41.4727 21.9297 41.4727 22.3535 41.4727 22.8457C41.5 23.3105 41.5137 23.8574 41.5137 24.4863Z" fill="black"/>
</svg>
